<svg xmlns="http://www.w3.org/2000/svg" fill='#fff' xmlns:xlink="http://www.w3.org/1999/xlink" x="0px" y="0px" viewBox="0 0 100 100" xml:space="preserve">	<g>		<path d="M28.6,42.3h3.1v42.9h-3.1V42.3z"></path>		<path d="M51.5,42.3c3.1,0,5.7,2.3,6,5.4c0,0.3,0,0.5,0,0.8h-3c-3.4,0-6.1-2.7-6.1-6.1H51.5z M68.6,53.8c1.8,2.4,2.8,5.4,2.8,8.4  s-1,6.1-2.8,8.4c-2.1,2.7-5.4,2.7-7.9,1.8c-1-0.4-2.1-0.4-3.1,0c-2.4,0.9-5.8,0.9-7.9-1.8c-1.8-2.4-2.8-5.4-2.8-8.4s1-6.1,2.8-8.4  c1.3-1.7,3.1-2.3,4.9-2.3c1,0,2,0.2,2.9,0.5c0,0.4,0,0.8,0,1.1c0,0.5,0,0.9,0,1.4h-3v3.1h9.2v-3.1h-3.1c0-0.5,0-0.9,0-1.5  c0-0.3,0-0.7,0-1c0,0,0,0,0.1,0C63.2,51.2,66.5,51.2,68.6,53.8L68.6,53.8z M49.5,50c-0.8,0.5-1.5,1.2-2.1,2  c-2.2,2.9-3.5,6.5-3.5,10.3c0,3.8,1.2,7.4,3.5,10.3c1.8,2.3,4.4,3.5,7.4,3.5c1.3,0,2.7-0.2,4-0.7c0.3-0.1,0.6-0.1,0.9,0  c4.3,1.6,8.8,0.5,11.4-2.7c2.2-2.9,3.5-6.5,3.5-10.3c0-3.8-1.2-7.4-3.5-10.3c-2.3-3-6.3-4.1-10.3-3.1v-0.4c0-0.4,0-0.7-0.1-1.1  c0.1-4.5,0.7-9.2,2.8-11.4c0.9-0.9,2-1.3,3.4-1.3v-3.1c-2.2,0-4.1,0.8-5.5,2.2c-1.9,1.9-2.8,4.8-3.3,8.1c-1.7-1.7-4-2.7-6.5-2.7  h-6.1v3.1C45.4,45.5,47,48.3,49.5,50L49.5,50z"></path>		<path d="M62.3,88.3h12.3v3.1H62.3V88.3z"></path>		<path d="M62.3,20.9V10.2c0-2.5,2.1-4.6,4.6-4.6h10.7v3.1h-9.2c-1.7,0-3.1,1.4-3.1,3.1v9.2H62.3z M77.6,82.2H61.8l-4.6,3.1H40.8V24  h36.8V82.2z M40.8,94.4v-6.1h17.3l4.6-3.1h14.9v9.2L40.8,94.4L40.8,94.4z M22.4,26.1l6.1,6.1v7h3.1v-7l6.1-6.1v68.3h-6.1v-6.1h-3.1  v6.1h-6.1V26.1z M30.1,29.5L24.6,24h11L30.1,29.5L30.1,29.5z M80.6,11.7V2.5H66.9c-4.2,0-7.7,3.4-7.7,7.7v10.7H19.4v76.6h61.3V20.9  H68.4v-9.2L80.6,11.7L80.6,11.7z"></path>	</g></svg>