<svg xmlns="http://www.w3.org/2000/svg" fill='#fff' xmlns:xlink="http://www.w3.org/1999/xlink" x="0px" y="0px" viewBox="0 0 100 100" xml:space="preserve">	<g>		<path d="M40.7,23.8c-1.7,0-3.1-1.4-3.1-3.1c0-1.7,1.4-3.1,3.1-3.1c1.7,0,3.1,1.4,3.1,3.1C43.8,22.5,42.4,23.8,40.7,23.8z   M46.9,20.8c0-3.4-2.8-6.2-6.2-6.2s-6.2,2.8-6.2,6.2s2.8,6.2,6.2,6.2S46.9,24.2,46.9,20.8z"></path>		<path d="M17.7,11.5h3.1v3.1h-3.1V11.5z"></path>		<path d="M23.8,11.5h3.1v3.1h-3.1V11.5z"></path>		<path d="M30,11.5h3.1v3.1H30V11.5z"></path>		<path d="M36.1,11.5h3.1v3.1h-3.1V11.5z"></path>		<path d="M42.3,11.5h3.1v3.1h-3.1V11.5z"></path>		<path d="M48.4,11.5h3.1v3.1h-3.1V11.5z"></path>		<path d="M94.6,80.1c0,1.8-1,3.3-2.6,4.1l-6.7,3.3v-3.4l4.5-2.2c1-0.5,1.7-1.6,1.7-2.8V66.9c0-1.7-1.4-3.1-3.1-3.1h-3.1v-3.1H90  c2.5,0,4.6,2.1,4.6,4.6L94.6,80.1L94.6,80.1z M77.7,94.6H56.1c-2.5,0-4.6-2.1-4.6-4.6v0c1.3,1,2.9,1.6,4.6,1.6h21.5  c1.7,0,3.3-0.6,4.6-1.6v0C82.3,92.6,80.2,94.6,77.7,94.6z M17.7,85.4V30h49.2v21.5h-3.1V33.1H20.7v49.2h27.7v3.1L17.7,85.4  L17.7,85.4z M5.4,30h9.2v55.4H5.4V30z M13.9,26.9H6.1l3.9-9.7L13.9,26.9L13.9,26.9z M11.5,5.4h46.2v6.2h-3.1v3.1h3.7l7.4,12.3H17.2  l-4.9-12.3h2.3v-3.1h-3.1L11.5,5.4L11.5,5.4z M49,51.5L42.3,41L31.9,57.3c-1.3,2-1.9,4.3-1.9,6.6c0,6.8,5.5,12.3,12.4,12.3  c2.2,0,4.3-0.6,6.1-1.6v4.7H23.8V36.2h36.9v15.4H49L49,51.5z M48.4,70.8c-1.7,1.5-3.8,2.3-6.2,2.3c-5.1,0-9.2-4.1-9.2-9.2  c0-1.8,0.5-3.5,1.4-4.9l7.8-12.2l6.2,9.7V70.8L48.4,70.8z M85.4,66.9h3.1v12.2l-3.1,1.5V66.9z M90,57.7h-4.6v-6.2H73.1v33.9h3.1  V54.6h6.2v29.2c0,2.5-2.1,4.6-4.6,4.6H60.8V57.7h-3.1v30.8h-1.5c-2.5,0-4.6-2.1-4.6-4.6V54.6H70V28l-9.2-15.4V2.3H8.5v10.5  L2.3,28.2v60.3h46.2V90c0,4.2,3.5,7.7,7.7,7.7h21.5c3.9,0,7.1-2.9,7.6-6.7l8.2-4.1c2.6-1.3,4.3-3.9,4.3-6.9V65.4  C97.7,61.1,94.3,57.7,90,57.7L90,57.7z"></path>	</g></svg>