<svg xmlns="http://www.w3.org/2000/svg" xmlns:xlink="http://www.w3.org/1999/xlink" x="0px" y="0px" viewBox="0 0 100 100" xml:space="preserve">	<g>		<path fill="#DC030E" d="M50,2.9c18.2,0,32.9,14.8,32.9,33C82.9,54.2,50,97.1,50,97.1S17.1,54.2,17.1,36C17.1,17.7,31.8,2.9,50,2.9z   M50,53.5c9.6,0,17.4-7.8,17.4-17.5c0-9.6-7.8-17.5-17.4-17.5c-9.6,0-17.4,7.8-17.4,17.5C32.6,45.6,40.4,53.5,50,53.5z"></path>		<path opacity="0.18" d="M50,2.9v15.6c-9.6,0-17.4,7.8-17.4,17.5c0,9.6,7.8,17.4,17.4,17.5V97  c-1-1.3-32.9-43.1-32.9-61C17.1,18,31.8,3,50,2.9z"></path>	</g></svg>