<svg xmlns="http://www.w3.org/2000/svg" fill="#fff" xmlns:xlink="http://www.w3.org/1999/xlink" x="0px" y="0px" viewBox="0 0 100 100" style="enable-background:new 0 0 100 100;" xml:space="preserve">	<g>		<path d="M40.5,72.1c0.2-0.7,0.3-1.5,0.3-2.3c-1.5-0.6-2.9-1.6-4.1-2.8c-1.2-1.2-2-2.6-2.6-4.2c-1.4,1-3,1.7-4.7,2  c-1.7,0.3-3.4,0.3-5.1-0.1c-0.5,0.7-0.8,1.5-1.1,2.3c-0.7,2.3-0.4,4.7,0.7,6.8c1.1,2.1,3,3.6,5.3,4.3c2.3,0.7,4.7,0.4,6.8-0.7  C38.3,76.3,39.8,74.3,40.5,72.1L40.5,72.1z"></path>		<path d="M33.5,59.5c-0.1-1.4,0.1-2.8,0.5-4.2c0.4-1.2,0.9-2.3,1.6-3.4c-1.6-0.7-3.1-1.8-4.3-3.1c-1.2-1.3-2-2.9-2.5-4.7  c-1.5-0.2-3-0.1-4.5,0.4c-1.4,0.5-2.7,1.4-3.7,2.5c-1,1.1-1.7,2.5-2,4c-0.3,1.5-0.2,3,0.2,4.5c0.4,1.5,1.3,2.8,2.4,3.8  c1.1,1.1,2.5,1.8,3.9,2.2c1.5,0.4,3,0.4,4.5,0C31,61.3,32.4,60.6,33.5,59.5z"></path>		<path d="M44.5,48.8c4.4-2.4,6-7.8,3.6-12.1c-2.4-4.4-7.8-6-12.1-3.6s-6,7.8-3.6,12.1C34.7,49.6,40.2,51.2,44.5,48.8z"></path>		<path d="M65.8,55.2c4.4-2.4,6-7.8,3.6-12.1c-2.4-4.4-7.8-6-12.1-3.6c-4.4,2.4-6,7.8-3.6,12.1C56,55.9,61.5,57.6,65.8,55.2z"></path>		<path d="M53.2,67.8c-2.4,2-5.4,3-8.5,2.9c-0.6,0.8-1.1,1.8-1.4,2.8c-0.3,1.1-0.4,2.3-0.3,3.5c0.1,1.2,0.5,2.3,1,3.3  c0.6,1,1.3,2,2.2,2.7s2,1.3,3.1,1.6c1.1,0.3,2.3,0.4,3.5,0.3c1.2-0.1,2.3-0.5,3.3-1c1-0.6,2-1.3,2.7-2.2c0.7-0.9,1.3-2,1.6-3.1  c0.3-0.9,0.4-1.9,0.3-2.9c-1.8-0.6-3.4-1.7-4.7-3C54.7,71.3,53.7,69.6,53.2,67.8z"></path>		<path d="M69,56.6c-1.5,1.2-3.3,2-5.2,2.4c-1.9,0.4-3.9,0.3-5.7-0.3c-0.1,0-0.3-0.1-0.4-0.1c-0.2,0.2-0.3,0.4-0.4,0.6  c0,1-0.2,2-0.5,2.9c-0.3,1-0.7,1.9-1.2,2.7c0.1,1.8,0.8,3.6,2,5c1.1,1.4,2.7,2.5,4.5,3c2.1,0.6,4.4,0.5,6.4-0.5  c2-0.9,3.6-2.6,4.4-4.6c0.9-2,1-4.3,0.3-6.4C72.4,59.5,71,57.7,69,56.6z"></path>		<path d="M40.1,78.2c-1.3,1.2-2.9,2.1-4.6,2.7c-1.7,0.5-3.5,0.7-5.3,0.4c-0.9,1-1.6,2.2-2,3.5c-0.7,2.3-0.4,4.7,0.7,6.8  c1.1,2.1,3,3.6,5.3,4.3c2.3,0.7,4.7,0.4,6.8-0.7c2.1-1.1,3.6-3,4.3-5.3c0.3-1.2,0.4-2.5,0.3-3.7c-1.4-0.9-2.7-2-3.6-3.4  C41.1,81.4,40.4,79.9,40.1,78.2z"></path>		<path d="M73.8,23.9c4.1-3.3,6.9-7.9,7.8-13.1c-5.2-0.3-10.4,1.4-14.5,4.7c-4.2,3.3-7,8-7.9,13.2C64.6,28.9,69.7,27.2,73.8,23.9z"></path>		<path d="M55.4,28.8c1.1-5.1,0.4-10.5-2.1-15.1c-2.5-4.6-6.6-8.2-11.5-10.1c-1.1,5.1-0.4,10.5,2.1,15.1C46.4,23.4,50.5,27,55.4,28.8  z"></path>		<path d="M48.5,47.8C48.5,47.8,48.5,47.8,48.5,47.8l0,1.7c0,0,0,0.1,0,0.1c-1.3,1.2-2.9,2.2-4.6,2.8c-1.7,0.6-3.5,0.7-5.3,0.5  c-0.8,1-1.5,2.1-1.9,3.4c-0.7,2.3-0.4,4.7,0.7,6.8c1.1,2.1,3,3.6,5.3,4.3c2.3,0.7,4.7,0.4,6.8-0.7c2.1-1.1,3.6-3,4.3-5.3  c0.4-1.5,0.5-3.1,0.1-4.7c-1.8-1.5-3.2-3.5-3.9-5.7c0.4,0,0.7-0.2,0.9-0.5c0.2-0.3,0.4-0.6,0.4-1l0-1.6c0.3-6.2,2.6-12.5,6-16.1  c0.1-0.1,0.2-0.3,0.3-0.5c0.1-0.2,0.1-0.4,0.1-0.6c0-0.2,0-0.4-0.1-0.6c-0.1-0.2-0.2-0.3-0.3-0.5c-0.1-0.1-0.3-0.2-0.5-0.3  c-0.2-0.1-0.4-0.1-0.6-0.1c-0.2,0-0.4,0.1-0.6,0.1c-0.2,0.1-0.3,0.2-0.5,0.3C51.4,33.9,48.8,40.8,48.5,47.8z"></path>	</g></svg>