<svg xmlns="http://www.w3.org/2000/svg" fill='#fff' xmlns:xlink="http://www.w3.org/1999/xlink" x="0px" y="0px" viewBox="0 0 100 100" xml:space="preserve">	<g>		<path d="M23.9,42.3h12.3c0.8,0,1.5,0.7,1.5,1.5c0,0.8-0.7,1.5-1.5,1.5H23.9c-0.8,0-1.5-0.7-1.5-1.5C22.4,43,23.1,42.3,23.9,42.3z   M23.9,48.5h12.3c2.5,0,4.6-2.1,4.6-4.6c0-2.5-2.1-4.6-4.6-4.6H23.9c-2.5,0-4.6,2.1-4.6,4.6C19.3,46.4,21.4,48.5,23.9,48.5z"></path>		<path d="M82.3,51.4v-6h-0.9l2.4-2.4l6.4,6.4c-1.8,1.3-4,2.2-6.4,2.2C83.3,51.5,82.8,51.5,82.3,51.4L82.3,51.4z M74.6,88.4H50  c-2.5,0-4.6-2.1-4.6-4.6V60.7c2.5-0.2,4-1,5.3-1.6c1.5-0.7,2.7-1.4,5.5-1.4c2.7,0,4,0.6,5.5,1.4c1.6,0.8,3.4,1.7,6.8,1.7  c3.4,0,5.2-0.9,6.8-1.7c1.2-0.6,2.2-1.1,3.9-1.3v26C79.2,86.3,77.1,88.4,74.6,88.4z M74.6,94.5H50c-2.5,0-4.6-2.1-4.6-4.6v0  c1.3,1,2.9,1.6,4.6,1.6h24.6c1.7,0,3.3-0.6,4.6-1.6v0C79.2,92.5,77.1,94.5,74.6,94.5z M18.3,94.5c-2,0-3.7-1.3-4.3-3.1h28.5  c0.2,1,0.6,1.9,1.1,2.7c-0.6,0.2-1.2,0.4-1.8,0.4L18.3,94.5L18.3,94.5z M8.3,60.7c2.7-0.3,5-1.6,6.4-3.4c1.4,1.7,3.6,3,6.2,3.3  l1.4,27.7h-9L8.3,60.7L8.3,60.7z M5.5,44.8l2.6-1.4c8.4-4.6,13.7-13.1,14.2-22.5h3.1v1.5c0,2.5,2.1,4.6,4.6,4.6  c2.5,0,4.6-2.1,4.6-4.6v-1.5h3.1c0.5,9.4,5.9,18,14.2,22.5l2.6,1.4v0.5l0,0.1H42.4v6.1H6.6l-1.1-6.3V44.8L5.5,44.8z M19.3,13.2  c0-0.8,0.7-1.5,1.5-1.5h4.6v3.1h3.1V5.5h3.1v16.9c0,0.8-0.7,1.5-1.5,1.5c-0.8,0-1.5-0.7-1.5-1.5v-4.6h-7.7c-0.8,0-1.5-0.7-1.5-1.5  L19.3,13.2L19.3,13.2z M23.9,5.5h1.5v3.1h-3.1V7C22.4,6.2,23.1,5.5,23.9,5.5L23.9,5.5z M37.7,7v1.5h-3.1V5.5h1.5  C37,5.5,37.7,6.2,37.7,7L37.7,7z M34.7,11.6h4.6c0.8,0,1.5,0.7,1.5,1.5v3.1c0,0.8-0.7,1.5-1.5,1.5h-4.6V11.6L34.7,11.6z M25.4,88.4  L24,60.6c2.5-0.4,4.7-1.6,6.1-3.3c1.4,1.7,3.5,2.9,6.1,3.3l-1.4,27.8H25.4z M16.6,54.6h11.5c-0.8,1.8-3.1,3.1-5.8,3.1  C19.7,57.7,17.5,56.4,16.6,54.6z M42.3,56.1c-1.2,1-2.8,1.6-4.6,1.6c-2.7,0-4.9-1.3-5.8-3.1h10.4V56.1z M7.2,54.6h5.6  c-0.8,1.6-2.7,2.8-5,3L7.2,54.6z M42.3,88.4h-4.5l1.4-27.7c1.1-0.1,2.2-0.5,3.1-0.9V88.4z M79.2,54.7c-2.5,0.2-4,1-5.3,1.6  c-1.5,0.7-2.7,1.4-5.5,1.4c-2.7,0-4-0.6-5.5-1.4c-1.6-0.8-3.4-1.7-6.8-1.7c-3.4,0-5.2,0.9-6.8,1.7c-1.2,0.6-2.2,1.1-3.9,1.3v-9.1  h33.8L79.2,54.7L79.2,54.7z M73,40.8c0-2.4,0.8-4.6,2.2-6.4l6.4,6.4L77,45.4h-2.9C73.4,44,73,42.4,73,40.8z M90.2,32.2l-6.4,6.4  l-6.4-6.4c1.8-1.3,4-2.2,6.4-2.2C86.2,30,88.4,30.8,90.2,32.2z M86,40.8l6.4-6.4c1.3,1.8,2.2,4,2.2,6.4c0,2.4-0.8,4.6-2.2,6.4  L86,40.8z M83.8,27C76.2,27,70,33.2,70,40.8c0,1.6,0.3,3.1,0.8,4.6H57.7l0-2.4l-4.2-2.3C46,36.6,41.3,29,40.8,20.5  c1.8-0.6,3-2.3,3-4.3v-3.1c0-2-1.3-3.7-3.1-4.3V7c0-2.5-2.1-4.6-4.6-4.6H23.9c-2.5,0-4.6,2.1-4.6,4.6v1.8c-1.8,0.6-3.1,2.3-3.1,4.3  v3.1c0,2,1.3,3.7,3,4.3c-0.4,8.4-5.2,16-12.6,20.1L2.4,43v2.4l8.3,45.9c0.7,3.7,3.8,6.3,7.6,6.3h23.5c1.5,0,2.9-0.4,4.1-1.2  c1.2,0.8,2.6,1.2,4.1,1.2h24.6c4.2,0,7.7-3.4,7.7-7.7V54.5c0.5,0.1,1,0.1,1.5,0.1c7.6,0,13.8-6.2,13.8-13.8  C97.6,33.2,91.4,27,83.8,27L83.8,27z"></path>		<path d="M62.3,82.2v-6.1h6.1v6.1H62.3z M59.2,76.1h-3.1V70h6.1V73C60.6,73,59.2,74.4,59.2,76.1z M68.4,73h-3.1V70  c0-1.7-1.4-3.1-3.1-3.1h-6.1c-1.7,0-3.1,1.4-3.1,3.1v6.1c0,1.7,1.4,3.1,3.1,3.1h3.1v3.1c0,1.7,1.4,3.1,3.1,3.1h6.1  c1.7,0,3.1-1.4,3.1-3.1v-6.1C71.5,74.4,70.1,73,68.4,73z"></path>	</g></svg>