
<svg xmlns="http://www.w3.org/2000/svg" viewBox="0 0 100 100" preserveAspectRatio="none">
  <clipPath id="waveClip">
    <path d="M 0.00% 28.38% L 0.20% 28.38% L 0.30% 28.53% L 0.40% 28.68% L 0.60% 28.68% L 0.80% 28.68% L 1.00% 28.68% L 1.20% 28.68% L 1.30% 28.83% L 1.40% 28.98% L 1.60% 28.98% L 1.80% 28.98% L 2.00% 28.98% L 2.10% 29.13% L 2.20% 29.28% L 2.40% 29.28% L 2.60% 29.28% L 2.80% 29.28% L 2.90% 29.43% L 3.00% 29.58% L 3.20% 29.58% L 3.40% 29.58% L 3.60% 29.58% L 3.70% 29.73% L 3.80% 29.88% L 4.00% 29.88% L 4.20% 29.88% L 4.40% 29.88% L 4.60% 29.88% L 4.70% 30.03% L 4.80% 30.18% L 5.00% 30.18% L 5.20% 30.18% L 5.40% 30.18% L 5.50% 30.33% L 5.60% 30.48% L 5.80% 30.48% L 6.00% 30.48% L 6.20% 30.48% L 6.40% 30.48% L 6.50% 30.63% L 6.60% 30.78% L 6.80% 30.78% L 7.00% 30.78% L 7.20% 30.78% L 7.30% 30.93% L 7.40% 31.08% L 7.60% 31.08% L 7.80% 31.08% L 8.00% 31.08% L 8.20% 31.08% L 8.30% 31.23% L 8.40% 31.38% L 8.60% 31.38% L 8.80% 31.38% L 9.00% 31.38% L 9.20% 31.38% L 9.30% 31.53% L 9.40% 31.68% L 9.60% 31.68% L 9.80% 31.68% L 10.00% 31.68% L 10.20% 31.68% L 10.30% 31.83% L 10.40% 31.98% L 10.60% 31.98% L 10.80% 31.98% L 11.00% 31.98% L 11.20% 31.98% L 11.30% 32.13% L 11.40% 32.28% L 11.60% 32.28% L 11.80% 32.28% L 12.00% 32.28% L 12.20% 32.28% L 12.30% 32.43% L 12.40% 32.58% L 12.60% 32.58% L 12.80% 32.58% L 13.00% 32.58% L 13.20% 32.58% L 13.40% 32.58% L 13.50% 32.73% L 13.60% 32.88% L 13.80% 32.88% L 14.00% 32.88% L 14.20% 32.88% L 14.40% 32.88% L 14.60% 32.88% L 14.70% 33.03% L 14.80% 33.18% L 15.00% 33.18% L 15.20% 33.18% L 15.40% 33.18% L 15.60% 33.18% L 15.80% 33.18% L 15.90% 33.33% L 16.00% 33.48% L 16.20% 33.48% L 16.40% 33.48% L 16.60% 33.48% L 16.80% 33.48% L 17.00% 33.48% L 17.20% 33.48% L 17.40% 33.48% L 17.50% 33.63% L 17.60% 33.78% L 17.80% 33.78% L 18.00% 33.78% L 18.20% 33.78% L 18.40% 33.78% L 18.60% 33.78% L 18.80% 33.78% L 19.00% 33.78% L 19.20% 33.78% L 19.40% 33.78% L 19.60% 33.78% L 19.80% 33.78% L 20.00% 33.78% L 20.20% 33.78% L 20.40% 33.78% L 20.60% 33.78% L 20.80% 33.78% L 21.00% 33.78% L 21.20% 33.78% L 21.40% 33.78% L 21.60% 33.78% L 21.80% 33.78% L 22.00% 33.78% L 22.20% 33.78% L 22.40% 33.78% L 22.60% 33.78% L 22.80% 33.78% L 23.00% 33.78% L 23.20% 33.78% L 23.40% 33.78% L 23.50% 33.63% L 23.60% 33.48% L 23.80% 33.48% L 24.00% 33.48% L 24.20% 33.48% L 24.40% 33.48% L 24.60% 33.48% L 24.70% 33.33% L 24.80% 33.18% L 25.00% 33.18% L 25.20% 33.18% L 25.40% 33.18% L 25.50% 33.03% L 25.60% 32.88% L 25.80% 32.88% L 26.00% 32.88% L 26.10% 32.73% L 26.20% 32.58% L 26.40% 32.58% L 26.60% 32.58% L 26.80% 32.58% L 26.90% 32.43% L 27.00% 32.28% L 27.20% 32.28% L 27.30% 32.13% L 27.40% 31.98% L 27.60% 31.98% L 27.70% 31.83% L 27.80% 31.68% L 28.00% 31.68% L 28.20% 31.68% L 28.30% 31.53% L 28.40% 31.38% L 28.60% 31.38% L 28.70% 31.23% L 28.80% 31.08% L 29.00% 31.08% L 29.10% 30.93% L 29.20% 30.78% L 29.40% 30.78% L 29.50% 30.63% L 29.60% 30.48% L 29.70% 30.33% L 29.80% 30.18% L 30.00% 30.18% L 30.10% 30.03% L 30.20% 29.88% L 30.40% 29.88% L 30.50% 29.73% L 30.60% 29.58% L 30.70% 29.43% L 30.80% 29.28% L 31.00% 29.28% L 31.10% 29.13% L 31.20% 28.98% L 31.30% 28.83% L 31.40% 28.68% L 31.60% 28.68% L 31.70% 28.53% L 31.80% 28.38% L 31.90% 28.23% L 32.00% 28.08% L 32.20% 28.08% L 32.30% 27.93% L 32.40% 27.78% L 32.50% 27.63% L 32.60% 27.48% L 32.80% 27.48% L 32.90% 27.33% L 33.00% 27.18% L 33.10% 27.03% L 33.20% 26.88% L 33.30% 26.73% L 33.40% 26.58% L 33.60% 26.58% L 33.70% 26.43% L 33.80% 26.28% L 33.90% 26.13% L 34.00% 25.98% L 34.20% 25.98% L 34.30% 25.83% L 34.40% 25.68% L 34.50% 25.53% L 34.60% 25.38% L 34.70% 25.23% L 34.80% 25.08% L 35.00% 25.08% L 35.10% 24.92% L 35.20% 24.77% L 35.30% 24.62% L 35.40% 24.47% L 35.60% 24.47% L 35.70% 24.32% L 35.80% 24.17% L 35.90% 24.02% L 36.00% 23.87% L 36.20% 23.87% L 36.30% 23.72% L 36.40% 23.57% L 36.50% 23.42% L 36.60% 23.27% L 36.80% 23.27% L 36.90% 23.12% L 37.00% 22.97% L 37.10% 22.82% L 37.20% 22.67% L 37.40% 22.67% L 37.50% 22.52% L 37.60% 22.37% L 37.70% 22.22% L 37.80% 22.07% L 38.00% 22.07% L 38.10% 21.92% L 38.20% 21.77% L 38.40% 21.77% L 38.50% 21.62% L 38.60% 21.47% L 38.80% 21.47% L 38.90% 21.32% L 39.00% 21.17% L 39.10% 21.02% L 39.20% 20.87% L 39.40% 20.87% L 39.60% 20.87% L 39.70% 20.72% L 39.80% 20.57% L 40.00% 20.57% L 40.10% 20.42% L 40.20% 20.27% L 40.40% 20.27% L 40.50% 20.12% L 40.60% 19.97% L 40.80% 19.97% L 41.00% 19.97% L 41.10% 19.82% L 41.20% 19.67% L 41.40% 19.67% L 41.60% 19.67% L 41.70% 19.52% L 41.80% 19.37% L 42.00% 19.37% L 42.20% 19.37% L 42.40% 19.37% L 42.60% 19.37% L 42.80% 19.37% L 43.00% 19.37% L 43.10% 19.22% L 43.20% 19.07% L 43.40% 19.07% L 43.60% 19.07% L 43.80% 19.07% L 44.00% 19.07% L 44.20% 19.07% L 44.30% 19.22% L 44.40% 19.37% L 44.60% 19.37% L 44.80% 19.37% L 45.00% 19.37% L 45.20% 19.37% L 45.40% 19.37% L 45.60% 19.37% L 45.70% 19.52% L 45.80% 19.67% L 46.00% 19.67% L 46.20% 19.67% L 46.40% 19.67% L 46.50% 19.82% L 46.60% 19.97% L 46.80% 19.97% L 47.00% 19.97% L 47.10% 20.12% L 47.20% 20.27% L 47.40% 20.27% L 47.60% 20.27% L 47.70% 20.42% L 47.80% 20.57% L 48.00% 20.57% L 48.20% 20.57% L 48.30% 20.72% L 48.40% 20.87% L 48.60% 20.87% L 48.80% 20.87% L 48.90% 21.02% L 49.00% 21.17% L 49.20% 21.17% L 49.30% 21.32% L 49.40% 21.47% L 49.60% 21.47% L 49.70% 21.62% L 49.80% 21.77% L 50.00% 21.77% L 50.20% 21.77% L 50.30% 21.92% L 50.40% 22.07% L 50.60% 22.07% L 50.70% 22.22% L 50.80% 22.37% L 51.00% 22.37% L 51.10% 22.52% L 51.20% 22.67% L 51.40% 22.67% L 51.60% 22.67% L 51.70% 22.82% L 51.80% 22.97% L 52.00% 22.97% L 52.10% 23.12% L 52.20% 23.27% L 52.40% 23.27% L 52.50% 23.42% L 52.60% 23.57% L 52.80% 23.57% L 53.00% 23.57% L 53.10% 23.72% L 53.20% 23.87% L 53.40% 23.87% L 53.60% 23.87% L 53.70% 24.02% L 53.80% 24.17% L 54.00% 24.17% L 54.10% 24.32% L 54.20% 24.47% L 54.40% 24.47% L 54.60% 24.47% L 54.80% 24.47% L 54.90% 24.62% L 55.00% 24.77% L 55.20% 24.77% L 55.40% 24.77% L 55.50% 24.92% L 55.60% 25.08% L 55.80% 25.08% L 56.00% 25.08% L 56.20% 25.08% L 56.40% 25.08% L 56.50% 25.23% L 56.60% 25.38% L 56.80% 25.38% L 57.00% 25.38% L 57.20% 25.38% L 57.40% 25.38% L 57.60% 25.38% L 57.80% 25.38% L 58.00% 25.38% L 58.20% 25.38% L 58.40% 25.38% L 58.60% 25.38% L 58.80% 25.38% L 59.00% 25.38% L 59.20% 25.38% L 59.40% 25.38% L 59.60% 25.38% L 59.80% 25.38% L 60.00% 25.38% L 60.10% 25.23% L 60.20% 25.08% L 60.40% 25.08% L 60.60% 25.08% L 60.80% 25.08% L 61.00% 25.08% L 61.20% 25.08% L 61.30% 24.92% L 61.40% 24.77% L 61.60% 24.77% L 61.80% 24.77% L 62.00% 24.77% L 62.10% 24.62% L 62.20% 24.47% L 62.40% 24.47% L 62.60% 24.47% L 62.80% 24.47% L 62.90% 24.32% L 63.00% 24.17% L 63.20% 24.17% L 63.40% 24.17% L 63.60% 24.17% L 63.70% 24.02% L 63.80% 23.87% L 64.00% 23.87% L 64.20% 23.87% L 64.30% 23.72% L 64.40% 23.57% L 64.60% 23.57% L 64.80% 23.57% L 64.90% 23.42% L 65.00% 23.27% L 65.20% 23.27% L 65.40% 23.27% L 65.50% 23.12% L 65.60% 22.97% L 65.80% 22.97% L 66.00% 22.97% L 66.10% 22.82% L 66.20% 22.67% L 66.40% 22.67% L 66.60% 22.67% L 66.70% 22.52% L 66.80% 22.37% L 67.00% 22.37% L 67.20% 22.37% L 67.30% 22.22% L 67.40% 22.07% L 67.60% 22.07% L 67.80% 22.07% L 67.90% 21.92% L 68.00% 21.77% L 68.20% 21.77% L 68.40% 21.77% L 68.60% 21.77% L 68.70% 21.62% L 68.80% 21.47% L 69.00% 21.47% L 69.20% 21.47% L 69.30% 21.32% L 69.40% 21.17% L 69.60% 21.17% L 69.80% 21.17% L 70.00% 21.17% L 70.10% 21.02% L 70.20% 20.87% L 70.40% 20.87% L 70.60% 20.87% L 70.80% 20.87% L 70.90% 20.72% L 71.00% 20.57% L 71.20% 20.57% L 71.40% 20.57% L 71.60% 20.57% L 71.80% 20.57% L 72.00% 20.57% L 72.10% 20.42% L 72.20% 20.27% L 72.40% 20.27% L 72.60% 20.27% L 72.80% 20.27% L 73.00% 20.27% L 73.20% 20.27% L 73.40% 20.27% L 73.60% 20.27% L 73.80% 20.27% L 74.00% 20.27% L 74.20% 20.27% L 74.40% 20.27% L 74.60% 20.27% L 74.80% 20.27% L 75.00% 20.27% L 75.20% 20.27% L 75.40% 20.27% L 75.60% 20.27% L 75.80% 20.27% L 76.00% 20.27% L 76.20% 20.27% L 76.40% 20.27% L 76.60% 20.27% L 76.80% 20.27% L 77.00% 20.27% L 77.20% 20.27% L 77.40% 20.27% L 77.60% 20.27% L 77.80% 20.27% L 78.00% 20.27% L 78.10% 20.42% L 78.20% 20.57% L 78.40% 20.57% L 78.60% 20.57% L 78.80% 20.57% L 79.00% 20.57% L 79.20% 20.57% L 79.40% 20.57% L 79.50% 20.72% L 79.60% 20.87% L 79.80% 20.87% L 80.00% 20.87% L 80.20% 20.87% L 80.40% 20.87% L 80.60% 20.87% L 80.70% 21.02% L 80.80% 21.17% L 81.00% 21.17% L 81.20% 21.17% L 81.40% 21.17% L 81.60% 21.17% L 81.70% 21.32% L 81.80% 21.47% L 82.00% 21.47% L 82.20% 21.47% L 82.40% 21.47% L 82.60% 21.47% L 82.70% 21.62% L 82.80% 21.77% L 83.00% 21.77% L 83.20% 21.77% L 83.40% 21.77% L 83.60% 21.77% L 83.70% 21.92% L 83.80% 22.07% L 84.00% 22.07% L 84.20% 22.07% L 84.40% 22.07% L 84.50% 22.22% L 84.60% 22.37% L 84.80% 22.37% L 85.00% 22.37% L 85.20% 22.37% L 85.30% 22.52% L 85.40% 22.67% L 85.60% 22.67% L 85.80% 22.67% L 86.00% 22.67% L 86.10% 22.82% L 86.20% 22.97% L 86.40% 22.97% L 86.60% 22.97% L 86.80% 22.97% L 86.90% 23.12% L 87.00% 23.27% L 87.20% 23.27% L 87.40% 23.27% L 87.60% 23.27% L 87.80% 23.27% L 87.90% 23.42% L 88.00% 23.57% L 88.20% 23.57% L 88.40% 23.57% L 88.60% 23.57% L 88.70% 23.72% L 88.80% 23.87% L 89.00% 23.87% L 89.20% 23.87% L 89.40% 23.87% L 89.50% 24.02% L 89.60% 24.17% L 89.80% 24.17% L 90.00% 24.17% L 90.20% 24.17% L 90.30% 24.32% L 90.40% 24.47% L 90.60% 24.47% L 90.80% 24.47% L 91.00% 24.47% L 91.10% 24.62% L 91.20% 24.77% L 91.40% 24.77% L 91.60% 24.77% L 91.80% 24.77% L 91.90% 24.92% L 92.00% 25.08% L 92.20% 25.08% L 92.40% 25.08% L 92.60% 25.08% L 92.70% 25.23% L 92.80% 25.38% L 93.00% 25.38% L 93.20% 25.38% L 93.40% 25.38% L 93.50% 25.53% L 93.60% 25.68% L 93.80% 25.68% L 94.00% 25.68% L 94.20% 25.68% L 94.30% 25.83% L 94.40% 25.98% L 94.60% 25.98% L 94.80% 25.98% L 95.00% 25.98% L 95.10% 26.13% L 95.20% 26.28% L 95.40% 26.28% L 95.60% 26.28% L 95.80% 26.28% L 96.00% 26.28% L 96.10% 26.43% L 96.20% 26.58% L 96.40% 26.58% L 96.60% 26.58% L 96.80% 26.58% L 96.90% 26.73% L 97.00% 26.88% L 97.20% 26.88% L 97.40% 26.88% L 97.60% 26.88% L 97.70% 27.03% L 97.80% 27.18% L 98.00% 27.18% L 98.20% 27.18% L 98.40% 27.18% L 98.50% 27.33% L 98.60% 27.48% L 98.80% 27.48% L 99.00% 27.48% L 99.20% 27.48% L 99.30% 27.63% L 99.40% 27.78% L 99.60% 27.78% L 99.80% 27.78% Z" />
  </clipPath>
</svg>
