<svg id="visual" viewBox="0 0 900 600" width="900" height="600" xmlns="http://www.w3.org/2000/svg" xmlns:xlink="http://www.w3.org/1999/xlink" version="1.1"><path d="M0 467L21.5 456C43 445 86 423 128.8 428.5C171.7 434 214.3 467 257.2 484.5C300 502 343 504 385.8 490C428.7 476 471.3 446 514.2 442.2C557 438.3 600 460.7 642.8 461.5C685.7 462.3 728.3 441.7 771.2 433C814 424.3 857 427.7 878.5 429.3L900 431L900 601L878.5 601C857 601 814 601 771.2 601C728.3 601 685.7 601 642.8 601C600 601 557 601 514.2 601C471.3 601 428.7 601 385.8 601C343 601 300 601 257.2 601C214.3 601 171.7 601 128.8 601C86 601 43 601 21.5 601L0 601Z" fill="#FFC935" stroke-linecap="round" stroke-linejoin="miter"></path></svg>