<?xml version="1.0" encoding="UTF-8"?>
<svg version="1.1" xmlns="http://www.w3.org/2000/svg" width="500" height="333">
<path d="M0 0 C165 0 330 0 500 0 C500 30.69 500 61.38 500 93 C487.63332031 90.75151278 487.63332031 90.75151278 481.76977539 89.29174805 C481.13039536 89.13367676 480.49101532 88.97560547 479.83226013 88.81274414 C478.4641866 88.47424272 477.09646563 88.13431354 475.72908211 87.79303551 C473.5329656 87.24559282 471.33558685 86.7035005 469.13780212 86.16279602 C462.89504469 84.62641132 456.65368829 83.08448674 450.4152832 81.53051758 C413.44667837 71.66336041 413.44667837 71.66336041 375.5625 68.375 C373.69235229 68.39820312 373.69235229 68.39820312 371.78442383 68.421875 C360.66420272 68.71969332 350.57042342 70.64728342 340 74 C338.9800293 74.32129883 337.96005859 74.64259766 336.90917969 74.97363281 C332.54036609 76.35924934 328.17750431 77.76245156 323.81884766 79.1796875 C296.53248022 88.02978017 277.51824951 84.64776479 251.44677734 73.99609375 C233.77623064 66.80233696 218.06742464 61.46465402 199.4296875 69.30859375 C189.31832838 74.29517518 180.19467904 80.78705712 171.125 87.4375 C141.74052665 108.9603101 113.63814839 117.03080657 77.3112793 111.64666748 C57.98604787 108.62326634 38.85149059 104.34966285 19.77734375 100.05078125 C19.0516217 99.8884198 18.32589966 99.72605835 17.57818604 99.55877686 C11.6563056 98.20858203 5.87656053 96.60269833 0 95 C0 63.65 0 32.3 0 0 Z " fill="#FE6799" transform="translate(0,0)"/>
</svg>
