<svg id="visual" viewBox="0 0 900 600" width="900" height="600" xmlns="http://www.w3.org/2000/svg" xmlns:xlink="http://www.w3.org/1999/xlink" version="1.1"><path d="M0 131L21.5 142C43 153 86 175 128.8 169.5C171.7 164 214.3 131 257.2 113.5C300 96 343 94 385.8 108C428.7 122 471.3 152 514.2 155.8C557 159.7 600 137.3 642.8 136.5C685.7 135.7 728.3 156.3 771.2 165C814 173.7 857 170.3 878.5 168.7L900 167L900 0L878.5 0C857 0 814 0 771.2 0C728.3 0 685.7 0 642.8 0C600 0 557 0 514.2 0C471.3 0 428.7 0 385.8 0C343 0 300 0 257.2 0C214.3 0 171.7 0 128.8 0C86 0 43 0 21.5 0L0 0Z" fill="#FFC935" stroke-linecap="round" stroke-linejoin="miter"></path></svg>